<?xml version="1.0" encoding="utf-8"?>
<!-- Generator: Adobe Illustrator 20.0.0, SVG Export Plug-In . SVG Version: 6.00 Build 0)  -->
<svg version="1.1" id="Layer_1" xmlns="http://www.w3.org/2000/svg" xmlns:xlink="http://www.w3.org/1999/xlink" x="0px" y="0px"
	 viewBox="0 0 54.5 77.9" style="enable-background:new 0 0 54.5 77.9;" xml:space="preserve">
<style type="text/css">
	.st0{fill:none;stroke:#000000;stroke-width:3;stroke-linecap:round;stroke-linejoin:round;stroke-miterlimit:10;}
	.st1{fill:none;stroke:#000000;stroke-width:2.6641;stroke-linecap:round;stroke-linejoin:round;stroke-miterlimit:10;}
</style>
<path class="st0" d="M22.9,68c-4.8-1.7-8.2-6.3-8.2-11.7l0-29c0-6.9,5.6-25.3,12.5-25.3l0,0c6.9,0,12.5,18.4,12.5,25.3l0,29
	c0,5.4-3.4,10-8.2,11.7"/>
<path class="st0" d="M31.4,48.2l0,24c0,2.2-1.9,4.1-4.3,4.1l0,0c-2.3,0-4.2-1.8-4.2-4.1l0-24"/>
<path class="st0" d="M27.2,48.2"/>
<circle class="st1" cx="27.2" cy="24.3" r="5.9"/>
<path class="st0" d="M14.7,30.8c0,0-8.9,5.5-10.8,8.3c-2,3-3,13.8-1,13.8c1.7,0,11.8-8.2,11.8-8.2"/>
<path class="st0" d="M39.7,30.1c0,0,8.9,5.5,10.8,8.3c2,3,3,13.8,1,13.8c-1.7,0-11.8-8.2-11.8-8.2"/>
<line class="st0" x1="14.7" y1="48.2" x2="39.7" y2="48.2"/>
</svg>
